<svg width="792" height="82" xmlns="http://www.w3.org/2000/svg">
 <g id="Layer_1">
  <title>ELUNIVERSAL</title>
 </g>

 <g>
  <title>Layer 1</title>
  <g id="Capa_2">
   <g id="svg_1">
    <path id="svg_2" d="m791.961,78.63173l0,-23.305l-11.76,0l-1.711,10.689c-0.213,1.07 -0.535,1.177 -1.709,1.177l-19.029,0l0,-54.627c0,-1.497 0.107,-1.924 1.709,-2.03l8.875,-0.856l0,-8.445l-35.6,0l0,8.445l6.736,0.748c1.496,0.108 1.709,0.535 1.709,2.139l0,54.733c0,1.604 -0.213,1.925 -1.709,2.139l-6.736,0.748l0,8.445l59.225,0z" fill="#000100"/>
    <path id="svg_3" d="m642.727,24.96773l0,-20.847c-4.811,-2.03 -12.721,-4.276 -21.914,-4.276c-16.25,0 -28.648,7.591 -28.648,24.054c0,17.211 13.041,20.098 23.625,23.09c7.162,2.031 13.256,4.17 13.256,11.012c0,6.521 -4.811,9.941 -13.471,9.941c-4.063,0 -7.697,-0.854 -8.979,-1.175c-1.391,-0.321 -1.605,-0.642 -1.818,-1.925l-2.139,-10.156l-11.973,0l0,20.847c4.063,1.924 14.859,4.383 24.48,4.383c16.357,0 30.041,-6.842 30.041,-24.374c0,-16.035 -11.334,-19.884 -21.488,-22.984c-8.125,-2.459 -15.395,-4.382 -15.395,-11.438c0,-5.453 3.955,-9.087 11.975,-9.087c3.527,0 6.092,0.642 7.803,1.176c0.748,0.32 1.068,0.748 1.281,2.031l1.283,8.659l12.081,1.069z" fill="#000100"/>
    <path id="svg_4" d="m508.672,78.63173l0,-22.021l-11.652,0l-1.711,9.406c-0.213,1.07 -0.533,1.177 -1.709,1.177l-19.135,0l0,-21.487l25.014,0l0,-11.867l-25.014,0l0,-21.06l16.783,0c1.176,0 1.604,0.321 1.816,1.39l1.496,8.125l11.76,0.534l0,-21.595l-56.871,0l0,8.445l6.734,0.748c1.496,0.108 1.711,0.535 1.711,2.139l0,54.841c0,1.604 -0.215,1.925 -1.711,2.139l-6.734,0.748l0,8.338l59.223,0z" fill="#000100"/>
    <path id="svg_5" d="m418.02,78.63173l19.564,-65.852c0.322,-1.283 1.389,-1.711 2.674,-2.031l4.488,-1.176l0,-8.339l-27.688,0l-1.068,8.339l8.553,0.963l-15.5,53.45l-0.855,0l-16.037,-53.45l8.66,-0.963l0,-8.339l-32.392,0l-1.067,8.339l4.809,1.176c1.284,0.32 2.14,0.535 2.566,1.817l21.488,66.065l21.805,0l0,0.001z" fill="#000100"/>
    <path id="svg_6" d="m363.395,78.63173l0,-8.338l-8.231,-0.855c-1.604,-0.214 -1.71,-0.428 -1.71,-2.139l0,-54.626c0,-1.604 0.106,-1.817 1.71,-2.031l8.231,-0.854l0,-8.554l-35.919,0l0,8.554l7.804,0.748c1.497,0.106 1.71,0.533 1.71,2.138l0,54.733c0,1.604 -0.213,2.031 -1.71,2.139l-7.804,0.748l0,8.338l35.919,0l0,-0.001z" fill="#000100"/>
    <path id="svg_7" d="m311.763,78.63173l0,-65.958c0,-1.604 0.106,-1.817 1.71,-2.031l7.163,-0.854l0,-8.554l-29.719,0l0,8.554l6.735,0.748c1.497,0.106 1.71,0.533 1.71,2.138l0,44.471l-33.567,-55.91l-26.511,0l0,8.339l6.735,0.748c1.496,0.106 1.71,0.535 1.71,2.139l0,54.947c0,1.604 -0.214,1.925 -1.71,2.139l-6.735,0.748l0,8.338l29.719,0l0,-8.338l-7.163,-0.855c-1.604,-0.214 -1.71,-0.428 -1.71,-2.139l0,-44.471l34.102,55.803l17.531,0l0,-0.002z" fill="#000100"/>
    <path id="svg_8" d="m209.352,47.95173c0,13.469 -4.063,18.494 -15.501,18.494c-11.652,0 -14.432,-6.628 -14.432,-18.922l0,-34.957c0,-1.604 0.107,-1.817 1.71,-2.03l7.163,-0.856l0,-8.445l-33.781,0l0,8.445l6.628,0.748c1.497,0.108 1.711,0.535 1.711,2.139l0,37.95c0,19.99 9.086,29.398 30.36,29.398c18.815,0 30.467,-8.66 30.467,-28.971l0,-38.378c0,-1.604 0.107,-1.817 1.711,-2.03l7.162,-0.856l0,-8.445l-31.643,0l0,8.445l6.735,0.748c1.496,0.108 1.71,0.535 1.71,2.139l0,35.384z" fill="#000100"/>
    <path id="svg_9" d="m126.291,78.63173l0,-23.305l-11.759,0l-1.71,10.689c-0.214,1.07 -0.535,1.177 -1.71,1.177l-19.03,0l0,-54.627c0,-1.497 0.107,-1.924 1.711,-2.03l8.873,-0.856l0,-8.445l-35.599,0l0,8.445l6.735,0.748c1.496,0.108 1.71,0.535 1.71,2.139l0,54.733c0,1.604 -0.214,1.925 -1.71,2.139l-6.735,0.748l0,8.445l59.224,0z" fill="#000100"/>
    <path id="svg_10" d="m59.263,78.63173l0,-22.021l-11.652,0l-1.71,9.406c-0.213,1.07 -0.534,1.177 -1.71,1.177l-19.137,0l0,-21.487l25.016,0l0,-11.867l-25.016,0l0,-21.06l16.784,0c1.175,0 1.604,0.321 1.817,1.39l1.497,8.125l11.759,0.534l0,-21.595l-56.871,0l0,8.445l6.735,0.748c1.497,0.108 1.71,0.535 1.71,2.139l0,54.841c0,1.604 -0.214,1.925 -1.71,2.139l-6.735,0.748l0,8.338l59.223,0z" fill="#000100"/>
    <path id="svg_11" d="m578.943,69.01073c-1.604,-0.214 -2.316,-0.428 -3.172,-2.031l-5.862,-15.286c-1.711,-4.49 -3.091,-7.056 -6.19,-8.554c8.34,-3.634 14.114,-8.941 14.114,-19.952c0,-11.118 -5.661,-20.808 -24.903,-20.808l-36.43,0l0,7.3l6.014,0.748c1.496,0.215 0.986,0.535 0.986,2.139l0,54.627c0,1.604 0.51,2.031 -0.986,2.139l-6.014,0.747l0,9.3l33,0l0,-9.3l-7.387,-0.855c-1.602,-0.214 -1.613,-0.428 -1.613,-2.138l0,-18.707l5.91,0c3.633,0 5.023,0.855 6.307,4.489l9.621,26.511l23.162,0l0,-9.3l-6.557,-1.069zm-32.642,-31.631l-5.801,0l0,-24l6.23,0c9.514,0 14.111,2.967 14.111,11.199c0.001,10.477 -6.843,12.801 -14.54,12.801z" fill="#000100"/>
    <path id="svg_12" d="m723.01,69.11773c-1.283,-0.32 -1.924,0.039 -2.352,-1.244l-23.092,-65.494l-18.92,0l-23.412,65.279c-0.428,1.282 -1.568,1.424 -2.852,1.744l-4.883,0.891l0,9.086l30,0l0,-9.086l-8.354,-0.379l3.834,-10.535l26.51,0l3.813,10.535l-8.803,0.379l0,9.086l33,0l0,-9.086l-4.489,-1.176zm-46.717,-21.738l9.836,-29l0.641,0l9.516,29l-19.993,0z" fill="#000100"/>
   </g>
  </g>
 </g>
 <g>
  <title>background</title>
  <rect fill="none" id="canvas_background" height="84" width="794" y="-1" x="-1"/>
 </g>
</svg>